# xmcd
#
# Track frame offsets:
#	150
#	12399
#	21140
#	47742
#	61445
#	77896
#	91239
#	101320
#	130044
#	143568
#	163314
#	186184
#	199691
#	213705
#	224297
#
# Disc length: 3155 seconds
#
# Revision: 1
# Processed by: cddbd v1.5.2PL0 Copyright (c) Steve Scherf et al.
# Submitted via: audiograbber 1.83.01
#
DISCID=d20c510f
DTITLE=Sampler - Gospel Greats, Voices From Heaven CD1
DYEAR=1900
DGENRE=Gospel
TTITLE0=Staple Singers - Will The Circle Be Unbroken
TTITLE1=Golden Gate Quartet - Glory, Glory Hallelujah
TTITLE2=Tina Charles - Amazing Grace
TTITLE3=103rd Street Gospel Choir - Down By The Riverside
TTITLE4=Mahalia Jackson - My God Is Real
TTITLE5=Five Blind Boys Of Mississippi - A Worker For The Lord
TTITLE6=The Coasters - Auld Lang Syne
TTITLE7=Harlem Gospel Singers - Bridge Over Trouble Waters/Still Water Runs Dee
TTITLE7=p
TTITLE8=Golden Gate Quartet - When The Saints Go Marching In
TTITLE9=Ray Charles - That Lucky Old Sun
TTITLE10=Clarence Fountain and The Blind Boys - How Far Am I From Canaan?
TTITLE11=Oak Ridge Boys - Lead Me To Calvary
TTITLE12=103rd Street Gospel Choir - Kumbaya
TTITLE13=Harlem Gospel Singers - Spiritual
TTITLE14=Staple Singers - He´s Alright 
EXTD=
EXTT0=
EXTT1=
EXTT2=
EXTT3=
EXTT4=
EXTT5=
EXTT6=
EXTT7=
EXTT8=
EXTT9=
EXTT10=
EXTT11=
EXTT12=
EXTT13=
EXTT14=
PLAYORDER=
